{"asset":{"generator":"3D Builder","version":"2.0"},"scene":0,"scenes":[{"nodes":[0,1,2,3,4,5,6,7]}],"nodes":[{"mesh":0,"matrix":[1,0,0,0,0,-1.1920928955078125E-7,-0.99999988079071045,0,0,0.99999988079071045,-1.1920928955078125E-7,0,-0.044349357485771179,0.42197328805923462,-0.29267513751983643,1]},{"mesh":1,"matrix":[1,0,0,0,0,-1.1920928955078125E-7,-0.99999988079071045,0,0,0.99999988079071045,-1.1920928955078125E-7,0,-0.044349357485771179,0.42197328805923462,-0.29267513751983643,1]},{"mesh":2,"matrix":[1,0,0,0,0,-1.1920928955078125E-7,-0.99999988079071045,0,0,0.99999988079071045,-1.1920928955078125E-7,0,-0.044349357485771179,0.42197328805923462,-0.29267513751983643,1]},{"mesh":3,"matrix":[1,0,0,0,0,-1.1920928955078125E-7,-0.99999988079071045,0,0,0.99999988079071045,-1.1920928955078125E-7,0,-0.044349357485771179,0.42197328805923462,-0.29267513751983643,1]},{"mesh":4,"matrix":[1,0,0,0,0,-1.1920928955078125E-7,-0.99999988079071045,0,0,0.99999988079071045,-1.1920928955078125E-7,0,-0.044349357485771179,0.42197328805923462,-0.29267513751983643,1]},{"mesh":5,"matrix":[1,0,0,0,0,-1.1920928955078125E-7,-0.99999988079071045,0,0,0.99999988079071045,-1.1920928955078125E-7,0,-0.044349357485771179,0.42197328805923462,-0.29267513751983643,1]},{"mesh":6,"matrix":[1,0,0,0,0,-1.1920928955078125E-7,-0.99999988079071045,0,0,0.99999988079071045,-1.1920928955078125E-7,0,-0.044349357485771179,0.42197328805923462,-0.29267513751983643,1]},{"mesh":7,"matrix":[1,0,0,0,0,-1.1920928955078125E-7,-0.99999988079071045,0,0,0.99999988079071045,-1.1920928955078125E-7,0,-0.044349357485771179,0.42197328805923462,-0.29267513751983643,1]}],"meshes":[{"primitives":[{"attributes":{"POSITION":0,"TEXCOORD_0":1},"mode":4,"indices":2,"material":0}]},{"primitives":[{"attributes":{"POSITION":3,"TEXCOORD_0":4},"mode":4,"indices":5,"material":1}]},{"primitives":[{"attributes":{"POSITION":6,"TEXCOORD_0":7},"mode":4,"indices":8,"material":2}]},{"primitives":[{"attributes":{"POSITION":9,"TEXCOORD_0":10},"mode":4,"indices":11,"material":3}]},{"primitives":[{"attributes":{"POSITION":12,"TEXCOORD_0":13},"mode":4,"indices":14,"material":4}]},{"primitives":[{"attributes":{"POSITION":15,"TEXCOORD_0":16},"mode":4,"indices":17,"material":5}]},{"primitives":[{"attributes":{"POSITION":18,"TEXCOORD_0":19},"mode":4,"indices":20,"material":6}]},{"primitives":[{"attributes":{"POSITION":21,"TEXCOORD_0":22},"mode":4,"indices":23,"material":7}]}],"materials":[{"pbrMetallicRoughness":{"baseColorFactor":[1,1,1,1],"metallicFactor":1,"roughnessFactor":1,"baseColorTexture":{"index":0,"texCoord":0},"metallicRoughnessTexture":{"index":1,"texCoord":0}},"alphaMode":"OPAQUE"},{"pbrMetallicRoughness":{"baseColorFactor":[1,1,1,1],"metallicFactor":1,"roughnessFactor":1,"baseColorTexture":{"index":2,"texCoord":0},"metallicRoughnessTexture":{"index":3,"texCoord":0}},"alphaMode":"OPAQUE"},{"pbrMetallicRoughness":{"baseColorFactor":[1,1,1,1],"metallicFactor":1,"roughnessFactor":1,"baseColorTexture":{"index":4,"texCoord":0},"metallicRoughnessTexture":{"index":5,"texCoord":0}},"alphaMode":"OPAQUE"},{"pbrMetallicRoughness":{"baseColorFactor":[1,1,1,1],"metallicFactor":1,"roughnessFactor":1,"baseColorTexture":{"index":6,"texCoord":0},"metallicRoughnessTexture":{"index":7,"texCoord":0}},"alphaMode":"OPAQUE"},{"pbrMetallicRoughness":{"baseColorFactor":[1,1,1,1],"metallicFactor":1,"roughnessFactor":1,"baseColorTexture":{"index":8,"texCoord":0},"metallicRoughnessTexture":{"index":9,"texCoord":0}},"alphaMode":"OPAQUE"},{"pbrMetallicRoughness":{"baseColorFactor":[1,1,1,1],"metallicFactor":1,"roughnessFactor":1,"baseColorTexture":{"index":10,"texCoord":0},"metallicRoughnessTexture":{"index":11,"texCoord":0}},"alphaMode":"OPAQUE"},{"pbrMetallicRoughness":{"baseColorFactor":[1,1,1,1],"metallicFactor":1,"roughnessFactor":1,"baseColorTexture":{"index":12,"texCoord":0},"metallicRoughnessTexture":{"index":13,"texCoord":0}},"alphaMode":"OPAQUE"},{"pbrMetallicRoughness":{"baseColorFactor":[1,1,1,1],"metallicFactor":1,"roughnessFactor":1,"baseColorTexture":{"index":14,"texCoord":0},"metallicRoughnessTexture":{"index":15,"texCoord":0}},"alphaMode":"OPAQUE"}],"textures":[{"source":0,"sampler":0},{"source":1,"sampler":0},{"source":2,"sampler":0},{"source":3,"sampler":0},{"source":4,"sampler":0},{"source":5,"sampler":0},{"source":6,"sampler":0},{"source":7,"sampler":0},{"source":8,"sampler":0},{"source":9,"sampler":0},{"source":10,"sampler":0},{"source":11,"sampler":0},{"source":12,"sampler":0},{"source":13,"sampler":0},{"source":14,"sampler":0},{"source":15,"sampler":0}],"images":[{"uri":"texture_4_6195987693227547908.png"},{"uri":"texture_5_17319628118832143767.png"},{"uri":"texture_8_11563080508590297124.png"},{"uri":"texture_9_12154559721164250551.png"},{"uri":"texture_12_17026833529806663332.png"},{"uri":"texture_13_17618312742380616759.png"},{"uri":"texture_0_12282369981943911396.png"},{"uri":"texture_1_10513312093935492215.png"},{"uri":"texture_16_1535343169432686052.png"},{"uri":"texture_17_18213029355133818487.png"},{"uri":"texture_20_13787955093972321256.png"},{"uri":"texture_21_11391679168369118331.png"},{"uri":"texture_24_5085786608578006328.png"},{"uri":"texture_25_5151118179009371211.png"},{"uri":"texture_28_15584965472381159224.png"},{"uri":"texture_29_15650297042812524107.png"}],"samplers":[{"magFilter":9729,"wrapS":10497,"wrapT":10497}],"accessors":[{"bufferView":0,"byteOffset":0,"count":3429,"componentType":5126,"type":"VEC3","min":[0.06316356360912323,-0.44029191136360168,-0.18804483115673065],"max":[0.18010452389717102,-0.33485031127929688,-0.0096500739455223083]},{"bufferView":1,"byteOffset":0,"count":3429,"componentType":5126,"type":"VEC2"},{"bufferView":2,"byteOffset":0,"count":19200,"componentType":5125,"type":"SCALAR"},{"bufferView":3,"byteOffset":0,"count":3429,"componentType":5126,"type":"VEC3","min":[-0.090586818754673,-0.44480657577514648,-0.19310471415519714],"max":[0.025382570922374725,-0.34407168626785278,-0.014779649674892426]},{"bufferView":4,"byteOffset":0,"count":3429,"componentType":5126,"type":"VEC2"},{"bufferView":5,"byteOffset":0,"count":19200,"componentType":5125,"type":"SCALAR"},{"bufferView":6,"byteOffset":0,"count":1628,"componentType":5126,"type":"VEC3","min":[0.017767999321222305,-0.46907156705856323,-0.1958240419626236],"max":[0.096270963549613953,-0.39348077774047852,-0.11301209032535553]},{"bufferView":7,"byteOffset":0,"count":1628,"componentType":5126,"type":"VEC2"},{"bufferView":8,"byteOffset":0,"count":9216,"componentType":5125,"type":"SCALAR"},{"bufferView":9,"byteOffset":0,"count":7971,"componentType":5126,"type":"VEC3","min":[-0.12090697884559631,-0.30957657098770142,-0.31329932808876038],"max":[0.21424612402915955,-0.11627865582704544,-0.007005155086517334]},{"bufferView":10,"byteOffset":0,"count":7971,"componentType":5126,"type":"VEC2"},{"bufferView":11,"byteOffset":0,"count":44460,"componentType":5125,"type":"SCALAR"},{"bufferView":12,"byteOffset":0,"count":17,"componentType":5126,"type":"VEC3","min":[0.009120352566242218,-0.4022575318813324,-0.29898527264595032],"max":[0.099768698215484619,-0.30794531106948853,-0.1827089786529541]},{"bufferView":13,"byteOffset":0,"count":17,"componentType":5126,"type":"VEC2"},{"bufferView":14,"byteOffset":0,"count":60,"componentType":5125,"type":"SCALAR"},{"bufferView":15,"byteOffset":0,"count":1625,"componentType":5126,"type":"VEC3","min":[-0.12256759405136108,-0.43903619050979614,-0.26686018705368042],"max":[0.21468323469161987,-0.16391633450984955,0.014584824442863464]},{"bufferView":16,"byteOffset":0,"count":1625,"componentType":5126,"type":"VEC2"},{"bufferView":17,"byteOffset":0,"count":9216,"componentType":5125,"type":"SCALAR"},{"bufferView":18,"byteOffset":0,"count":1610,"componentType":5126,"type":"VEC3","min":[0.10113812237977982,-0.32898372411727905,-0.053664594888687134],"max":[0.23048251867294312,-0.22406834363937378,0.15462565422058105]},{"bufferView":19,"byteOffset":0,"count":1610,"componentType":5126,"type":"VEC2"},{"bufferView":20,"byteOffset":0,"count":9216,"componentType":5125,"type":"SCALAR"},{"bufferView":21,"byteOffset":0,"count":1610,"componentType":5126,"type":"VEC3","min":[-0.14178380370140076,-0.33853745460510254,-0.060482308268547058],"max":[-0.0044227167963981628,-0.23442918062210083,0.14663726091384888]},{"bufferView":22,"byteOffset":0,"count":1610,"componentType":5126,"type":"VEC2"},{"bufferView":23,"byteOffset":0,"count":9216,"componentType":5125,"type":"SCALAR"}],"bufferViews":[{"buffer":0,"byteOffset":0,"byteLength":41148,"byteStride":12,"target":34962},{"buffer":0,"byteOffset":41148,"byteLength":27432,"byteStride":8,"target":34962},{"buffer":0,"byteOffset":68580,"byteLength":76800,"target":34963},{"buffer":0,"byteOffset":145380,"byteLength":41148,"byteStride":12,"target":34962},{"buffer":0,"byteOffset":186528,"byteLength":27432,"byteStride":8,"target":34962},{"buffer":0,"byteOffset":213960,"byteLength":76800,"target":34963},{"buffer":0,"byteOffset":290760,"byteLength":19536,"byteStride":12,"target":34962},{"buffer":0,"byteOffset":310296,"byteLength":13024,"byteStride":8,"target":34962},{"buffer":0,"byteOffset":323320,"byteLength":36864,"target":34963},{"buffer":0,"byteOffset":360184,"byteLength":95652,"byteStride":12,"target":34962},{"buffer":0,"byteOffset":455836,"byteLength":63768,"byteStride":8,"target":34962},{"buffer":0,"byteOffset":519604,"byteLength":177840,"target":34963},{"buffer":0,"byteOffset":697444,"byteLength":204,"byteStride":12,"target":34962},{"buffer":0,"byteOffset":697648,"byteLength":136,"byteStride":8,"target":34962},{"buffer":0,"byteOffset":697784,"byteLength":240,"target":34963},{"buffer":0,"byteOffset":698024,"byteLength":19500,"byteStride":12,"target":34962},{"buffer":0,"byteOffset":717524,"byteLength":13000,"byteStride":8,"target":34962},{"buffer":0,"byteOffset":730524,"byteLength":36864,"target":34963},{"buffer":0,"byteOffset":767388,"byteLength":19320,"byteStride":12,"target":34962},{"buffer":0,"byteOffset":786708,"byteLength":12880,"byteStride":8,"target":34962},{"buffer":0,"byteOffset":799588,"byteLength":36864,"target":34963},{"buffer":0,"byteOffset":836452,"byteLength":19320,"byteStride":12,"target":34962},{"buffer":0,"byteOffset":855772,"byteLength":12880,"byteStride":8,"target":34962},{"buffer":0,"byteOffset":868652,"byteLength":36864,"target":34963}],"buffers":[{"byteLength":905516,"uri":"buny-logo-2.bin"}]}